Patient4_TMGait_0pt8_01_left_52_EMG.mot
version=1
nRows=20
nColumns=33
inDegrees=no
endheader
time	1LAddLong	2LGlutMax	3LGlutMed	4LIliopsoas	5LSemiMemb	6LBicFemLong	7LRecFem	8LVastMed	9LVastLat	10LGasMed	11LTibAnt	12lTibPost	13LPeroneusLong	14LSol	15LExtDigLong	16LFlexDigLong	17RAddLong	18RGlutMax	19RGlutMed	20RIliopsoas	21RSemiMemb	22RBicFemLong	23RRecFem	24RVastMed	25RVastLat	26RGasMed	27RTibAnt	28RTibPost	29RPeroneusLong	30RSol	31RExtDigLong	32RFlexDigLong
57.98	-0.003662	0.35416	-0.077209	-0.003662	-0.014343	0.041351	0.43594	0.007172	-0.54199	-0.005951	0.06958	0.00351	-0.029755	0.010834	0.29694	0.005951	0.011749	0.34088	-0.13214	-0.014801	-0.033722	-0.44754	0.21408	0.048065	0.14801	-0.11475	0.031738	0.031738	-1.0515	0.12039	-0.002289	-0.005341
57.981	-0.002899	0.45975	-0.11383	-0.016479	-0.014648	0.031738	0.35721	0.014954	-0.57724	-0.023346	-0.038605	0.000153	0.012207	0.030365	-0.12665	0.00351	0.009155	0.35782	-0.15549	-0.061035	-0.037537	-0.52063	0.30609	-0.079041	0.17044	-0.078583	0.039368	0.002289	-0.17258	0.079651	-0.002899	0.005493
57.982	-0.00351	0.59891	-0.15518	-0.04425	-0.013123	0.026093	0.27924	0.025177	-0.63507	-0.032196	-0.074615	0.006104	0.032196	0.031738	0.070953	-0.003204	-0.005188	0.49423	-0.077972	-0.11276	-0.037689	-0.45715	0.27939	-0.012207	0.12787	-0.074158	0.044556	-0.001678	1.2473	0.052643	-0.006409	-0.008392
57.983	0.000763	0.70923	-0.10864	-0.021362	-0.023346	-0.006409	0.26642	0.016937	-0.65979	-0.056458	0.05127	0.001984	0.081482	-0.04364	-0.22293	0.005798	-0.014038	0.62241	-0.075226	-0.17197	-0.040588	-0.35934	0.086823	-0.066071	0.083008	-0.050354	0.081635	0.056763	0.80917	0.11093	-0.001526	-0.00824
57.984	0.038147	0.74036	-0.094604	0.029907	-0.018616	-0.005798	0.23148	0.005798	-0.70038	-0.032654	0.025635	0.000916	0.10361	-0.087585	-0.12985	0.00824	-0.027161	0.62195	0.035248	-0.083618	-0.041046	-0.21912	-0.17181	-0.10742	0.29175	-0.002594	0.25116	0.060577	-0.94544	0.19134	-0.002747	-0.016785
57.985	0.011292	0.79971	-0.082703	0.028229	0.00473	-0.01709	0.17929	-0.018005	-0.76263	-0.001373	0.007172	0.004272	0.034943	-0.15305	-0.39276	-0.009308	-0.033569	0.59326	0.14206	0.048523	-0.038605	0.020599	-0.51163	-0.04776	0.73151	-0.072327	0.40939	-0.050659	-1.0582	-0.02182	-0.000458	-0.015869
57.986	-0.024414	0.82443	-0.083618	0.015411	-0.015259	-0.027161	0.18631	0.039978	-0.78964	-0.011902	0.012512	-0.001373	0.003357	-0.094299	-0.19699	0.00061	-0.033417	0.62088	-0.046692	0.18478	-0.022583	0.18845	-0.64072	0.15366	0.64636	0.091095	0.10635	-0.051422	1.4447	-0.29343	-0.002136	-0.003357
57.987	0.010223	0.8197	-0.092621	0.018463	-0.009613	-0.014343	0.22919	0.018005	-0.7959	0.001526	-0.045929	-0.00412	-0.002899	-0.046082	0.011292	-0.00885	-0.016174	0.74402	-0.25391	0.11444	-0.025024	0.20325	-0.29617	0.084076	0.018311	0.090027	-0.20874	-0.010223	1.7728	-0.23819	-0.004425	-0.002441
57.988	-0.006256	0.80475	-0.079651	-0.000458	-0.009155	-0.016327	0.20248	0.019531	-0.74493	0.012207	-0.051575	0.002594	-0.043793	-0.023041	0.13184	0.014038	0.004578	0.78201	-0.2655	0.006104	-0.02533	0.45151	0.021973	0.036316	0.043182	0.029755	-0.12604	-0.013885	-2.4561	-0.2388	-0.003052	0.000153
57.989	0.002899	0.64331	-0.10162	0.015106	-0.02182	-0.024567	0.24628	0.022125	-0.64774	0.029602	0.13123	0.00473	-0.088043	-0.009003	0.26382	0.004272	-0.001068	0.87769	0.47058	-0.018311	-0.028839	0.61569	-0.092316	0.061035	0.1915	-0.014648	0.05249	-0.012665	-2.2908	-0.064087	-0.001373	-0.009003
57.99	0.001373	0.57022	-0.096893	0.019684	-0.014801	-0.006866	0.31006	0.027618	-0.48187	0.028076	0.13565	0.006104	-0.014191	-0.031738	0.13443	-0.022888	-0.007782	0.91782	1.2189	-0.039063	-0.049133	0.25879	-0.3685	0.050812	0.038452	-0.027161	0.006866	0.001373	0.70953	0.076447	-0.001373	-0.005646
57.991	-0.00473	0.5072	-0.080566	-0.015564	-0.010986	0.007019	0.28137	0.026398	-0.35858	0.011139	-0.082245	0.002289	0.033722	-0.063782	-0.29236	-0.003204	-0.002899	0.93384	0.58945	0.018616	-0.035858	-0.17883	-0.18463	0.13214	-0.22888	0.009308	0.001526	0.002899	-0.36468	-0.098419	-0.005188	-0.005035
57.992	0.003357	0.46448	-0.04715	-0.024109	-0.014343	0.008698	0.22247	0.027161	-0.24811	0.0177	-0.067291	0.00412	0.01358	-0.046997	-0.084686	0.003204	-0.009766	0.89386	0.057831	0.069885	-0.01709	-0.70923	-0.005951	0.17609	-0.40329	0.039673	-0.19104	0.002899	0.24078	-0.1265	0	-0.004272
57.993	0.00061	0.46875	-0.068054	-0.019531	-0.019836	-0.009613	0.17822	0.015411	-0.15717	0.047455	0.061188	0.011444	-0.00473	-0.047913	0.19379	-0.002747	-0.003815	0.86227	0.009155	0.079193	-0.0354	-0.78461	0.13947	0.030823	-0.43884	0.059204	-0.22232	-0.005646	0.98099	-0.23956	0.001068	0.005493
57.994	0.002899	0.43091	-0.061493	0.01297	-0.016022	-0.02533	0.14389	0.016937	-0.046387	0.050049	0.1358	0.002441	0.006104	-0.037842	0.30518	-0.021973	-0.00412	0.616	-0.052643	0.011902	-0.084839	-0.49179	0.17685	-0.063019	-0.22858	0.065918	-0.064697	0.002441	0.54749	0.018921	-0.001221	-0.007935
57.995	0.008698	0.44052	-0.0737	0.003357	-0.020599	-0.024719	0.14252	0.016785	0.031586	0.02594	0.1474	0.016174	0.036926	-0.016479	0.02655	0.00061	0.010529	0.54184	0.061493	0.007324	-0.0914	-0.3305	0.22766	-0.21103	-0.095825	0.033722	0.14252	-0.005188	-0.37918	0.10223	0.009003	-0.009918
57.996	0.005341	0.39871	-0.083618	-0.001678	-0.013275	-0.042419	0.1976	0.013885	0.091095	0.00412	-0.15182	0.011749	0.079956	0.002136	-0.075531	-0.01236	-0.000916	0.43396	-0.625	0.047607	-0.052948	-0.1088	0.23712	-0.18402	-0.071411	-0.028229	0.080719	-0.021515	0.034027	-0.062866	-0.001373	-0.008392
57.997	0.004425	0.39658	-0.063629	0.025177	-0.025024	-0.064087	0.16464	0.014191	0.12634	0.011597	-0.11658	-0.001068	0.059967	-0.006866	0.17364	-0.016479	-0.010376	0.35309	-0.82947	0.000153	-0.036011	0.034637	0.16159	-0.11459	-0.0354	-0.056915	-0.010071	-0.036621	-0.003662	-0.13397	-0.001221	-0.005035
57.998	-0.002289	0.38483	-0.050812	0.014801	-0.013123	-0.0737	0.14725	0.003357	0.1532	0.011749	0.010376	0.008698	0.029602	-0.03418	0.69992	-0.006409	0.004272	0.42389	-0.42038	0.002747	-0.073547	0.33493	0.026245	-0.13443	0.037231	-0.025635	-0.068054	-0.020294	0.31754	-0.19012	-0.002136	-0.008698
57.999	0.006866	0.39185	-0.054932	-0.021057	-0.015717	-0.06485	0.15457	0.010834	0.2002	-0.001526	0.049286	0.010681	0.028381	0.028687	-0.077515	-0.005798	0.005035	0.57266	-0.33539	-0.001984	-0.056915	0.55298	-0.15106	-0.15427	0.12405	-0.024261	-0.083008	0.058594	0.71411	-0.22324	-0.002289	-0.007477
